<svg xmlns="http://www.w3.org/2000/svg" width="746.802" height="826.995" viewBox="0 0 746.802 826.995">
  <path id="Path_2" data-name="Path 2" d="M22,167v-12.53l26.313-8.771q25.06-8.771,32.579-23.181T88.41,81.79V-573.542q0-25.06-6.892-39.47t-30.7-23.181L22-647.47V-660H380.365q147.857,0,226.8,55.76T686.1-449.492q0,55.133-41.35,110.266T514.438-254.021L688.608,91.814q11.277,21.3,25.687,34.458t38.217,23.181l16.289,6.265V167H544.511l-185.447-394.7H273.858V81.79q0,23.807,7.518,38.844T312.7,143.188l30.073,11.277V167ZM273.858-252.768H334q90.218,0,130.314-48.241t40.1-143.471q0-96.483-37.591-143.471T340.268-634.94h-66.41Z" transform="translate(-22 660)" fill="#c9ac2b"/>
</svg>
