<svg xmlns="http://www.w3.org/2000/svg" width="1007.494" height="599.175" viewBox="0 0 1007.494 599.175">
  <path id="Path_162" data-name="Path 162" d="M1004.561,577.907c-15.587-5.092-29.941-10.517-42.7-16.162-28.005-12.375-55.868-28.8-85.143-50.174l-3.071-2.333-7.354-5.666,5.609-3.815C953.018,444.456,997.7,372.142,997.7,296.183,997.7,132.869,792.1,0,539.376,0,463.318,0,389.43,12.652,323.569,35.423A622.448,622.448,0,0,1,483.231,14.963c233.245,0,423,124.111,423,276.66,0,56.4-26.636,108.02-65.314,147.882-3.7,3.8-7.517,7.546-11.4,11.148-3.837,3.553-6.219,9.006-11.545,10.63-3.8-3.766-8.113-6.553-12-10.106-3.063-2.766-6.319-5.4-9.5-8.028-8.383-6.936-16.956-13.687-25.53-20.36-15.58-12.12-31.21-24.275-47.365-35.636-.9-.631-1.815-1.269-2.73-1.893a420.051,420.051,0,0,0-45.9-26.268c-14.361-7.233-28.494-15.41-43.061-21.686-3.2-1.376-7.418-4.411-10.446-4.8,4.7-2.3,12.524-2.206,17.694-3.22,6.751-1.326,13.481-2.929,20.154-4.673,13.5-3.553,26.821-7.772,40.2-11.808,54.542-16.375,85.994-59.336,88.873-93.3C794.888,142.259,682.351,68.747,537.5,55.62,333.4,37.111,135.591,131.607,96.579,266.278c-16.68,57.606-3.922,115.417,36.77,167.143,0,0,.581.688.645.766A276.892,276.892,0,0,0,171.758,472.8l4.567,3.886C216.2,510.132,265.4,537,320.577,556.447a600.5,600.5,0,0,0,58.783,17.339,686.668,686.668,0,0,0,160.016,18.559A676.458,676.458,0,0,0,711.122,570.6l1.205-.312,1.2.284,14.268,3.3a733.056,733.056,0,0,0,114.75,14.261l5.233.22c4.1.17,8.524.376,13.184.56,12.361.5,26.324.979,40.359,1.106a616.861,616.861,0,0,1-95.709-20.552c-16.361-4.964-31.466-10.283-44.9-15.793-70.626-29.04-122.4-70.527-177.994-117.793l-4.368-3.744c-9.326-7.936-18.708-15.836-28.232-23.53-17.261-13.964-35.033-27.275-54.01-38.848-1.574-.964-3.205-1.858-4.787-2.787-8.638-5.1-17.5-9.808-26.58-14.049-6.992-3.248-14.063-6.3-21.325-8.914-12.283-4.432-26.672-12.751-39.65-14.3,8.687,1.028,26.317-4.759,34.763-7.666,7.765-2.645,15.389-3.978,23.183-5.773,1.227-.291,2.439-.617,3.659-.908q12.9-3.064,25.948-6.68c12.715-3.51,25.409-7.3,37.82-11.3,1.454-.461,2.886-.915,4.333-1.376.383-.128.773-.241,1.149-.369,1.51-.5,3.042-1.028,4.567-1.539.73-.255,1.475-.5,2.213-.752,2.9-1,5.808-2.014,8.716-3.078,18.176-6.6,36.189-14.517,52.251-25.154,2.333-1.525,4.6-3.078,6.73-4.659,27-19.956,43.663-44.358,46.947-68.7,2.418-17.864-2.447-34.65-14.432-49.925a154.922,154.922,0,0,0-38.451-34.281c-10.957-7.021-23.573-14.517-35.65-19.431,14.169.191,26.913,1.709,40.862,3.844,20.5,3.113,41.692,11.453,60.421,20.126,42.018,19.481,70.9,60.208,70.9,98.751,0,2.156-.1,4.283-.277,6.411-2.582,30.452-22.644,57.535-58.024,78.349a237.066,237.066,0,0,1-75.746,28.331l-26.679,5.39c-9.6,2.035-19.268,3.964-28.849,5.709-1.142.206-2.276.433-3.4.631,1.156.369,2.255.8,3.4,1.184,47.365,16.134,80.107,49.266,109.431,79.207l27.885,27.353c35.6,34.912,77.058,67.08,120.275,91.922a423.834,423.834,0,0,0,74.058,33.615,494.459,494.459,0,0,0,56.315,15.517,626.154,626.154,0,0,0,101.787,12.808l4.475.206c13.9.659,33.388,1.553,52.606,1.716A554.064,554.064,0,0,1,1004.561,577.907Zm-417.415-390.9a73.834,73.834,0,0,1-.787,10.857c-7.623,51.294-72.321,83.7-110.2,98.454a477.8,477.8,0,0,1-73.413,21.537c-.241.05-.461.085-.7.149-5.482,1.163-10.942,2.34-16.552,3.362l-3.5.631c-20.474,3.744-43.1,7.574-61.407,9.5-.894.1-1.808.2-2.674.3.908.369,1.773.752,2.674,1.128,53.2,22.282,89.32,52.783,127.132,84.83l23.537,19.75c40.039,33.04,94.369,74.782,159.648,104.439l13.134,5.971-14.041,3.291a481.054,481.054,0,0,1-65.265,10.723c-36.366,3.4-73.874,2.532-114.658-2.631C336.2,544.881,240.122,493.523,193.054,421.9c-29.714-45.2-37.919-94.964-23.75-143.911,17.538-60.549,71.4-115.984,147.783-152.088C394.4,89.341,496.273,66.825,550.368,113.3,573.678,133.309,587.145,160.733,587.145,187.007Z" transform="translate(-89.457)" fill="#fff" opacity="0.46"/>
</svg>
