<svg xmlns="http://www.w3.org/2000/svg" width="803" height="477.559" viewBox="0 0 803 477.559">
  <path id="Path_162" data-name="Path 162" d="M818.819,460.607c-12.424-4.058-23.864-8.382-34.032-12.881-22.321-9.863-44.529-22.954-67.861-39.99l-2.447-1.86-5.861-4.516,4.471-3.041c64.65-44.076,100.26-101.712,100.26-162.253C813.348,105.9,649.484,0,448.054,0c-60.62,0-119.511,10.084-172,28.233A496.108,496.108,0,0,1,403.306,11.926c185.9,0,337.145,98.92,337.145,220.506,0,44.952-21.23,86.1-52.057,117.866-2.95,3.03-5.991,6.014-9.089,8.885-3.058,2.832-4.957,7.178-9.2,8.473-3.03-3-6.466-5.223-9.564-8.054-2.442-2.2-5.036-4.3-7.574-6.4-6.681-5.528-13.515-10.909-20.348-16.228-12.418-9.66-24.876-19.348-37.752-28.4-.718-.5-1.447-1.012-2.176-1.509A334.794,334.794,0,0,0,556.1,286.128c-11.446-5.765-22.711-12.282-34.32-17.285-2.549-1.1-5.912-3.516-8.326-3.827,3.747-1.837,9.982-1.758,14.1-2.566,5.381-1.057,10.745-2.334,16.064-3.725,10.762-2.832,21.377-6.195,32.043-9.411,43.471-13.051,68.539-47.292,70.834-74.361,5.206-61.57-84.49-120.161-199.937-130.623-162.677-14.752-320.336,60.564-351.429,167.9-13.294,45.913-3.126,91.99,29.307,133.218,0,0,.463.548.514.61a220.691,220.691,0,0,0,30.1,30.777l3.64,3.1c31.783,26.656,70.992,48.072,114.972,63.571a478.646,478.646,0,0,0,46.851,13.82,547.3,547.3,0,0,0,127.537,14.792A539.155,539.155,0,0,0,584.941,454.78l.961-.249.955.226,11.372,2.634a584.268,584.268,0,0,0,91.459,11.367l4.171.175c3.267.136,6.794.3,10.508.447,9.852.4,20.981.78,32.167.882a491.66,491.66,0,0,1-76.283-16.38c-13.04-3.957-25.079-8.2-35.784-12.588-56.291-23.146-97.552-56.212-141.866-93.884l-3.482-2.984c-7.433-6.325-14.911-12.621-22.5-18.754a400.109,400.109,0,0,0-43.048-30.963c-1.255-.769-2.555-1.481-3.815-2.221-6.884-4.064-13.944-7.817-21.185-11.2-5.573-2.589-11.208-5.019-17-7.1-9.79-3.533-21.258-10.163-31.6-11.4,6.924.82,20.975-3.793,27.707-6.11,6.189-2.108,12.265-3.171,18.477-4.6.978-.232,1.944-.492,2.917-.723q10.284-2.442,20.682-5.324c10.135-2.8,20.252-5.822,30.143-9.01,1.159-.367,2.3-.729,3.453-1.1.305-.1.616-.192.916-.294,1.2-.4,2.425-.82,3.64-1.227.582-.2,1.176-.4,1.764-.6,2.312-.8,4.629-1.605,6.947-2.453,14.487-5.262,28.843-11.57,41.646-20.049,1.86-1.215,3.663-2.453,5.364-3.714,21.518-15.905,34.8-35.355,37.418-54.759,1.927-14.238-1.95-27.617-11.5-39.792A123.477,123.477,0,0,0,498.9,85.711c-8.733-5.6-18.788-11.57-28.414-15.487a229.191,229.191,0,0,1,32.568,3.064c16.341,2.481,33.23,9.128,48.157,16.041,33.49,15.527,56.506,47.988,56.506,78.708,0,1.718-.079,3.414-.22,5.11-2.057,24.271-18.048,45.857-46.247,62.446a188.947,188.947,0,0,1-60.372,22.581l-21.264,4.3c-7.647,1.622-15.357,3.16-22.993,4.55-.91.164-1.814.345-2.713.5.921.294,1.8.639,2.713.944,37.751,12.859,63.848,39.266,87.22,63.13l22.225,21.8c28.374,27.826,61.417,53.465,95.862,73.264a337.813,337.813,0,0,0,59.026,26.792,394.116,394.116,0,0,0,44.885,12.367,499.065,499.065,0,0,0,81.127,10.208l3.567.164c11.078.526,26.611,1.238,41.928,1.368A441.607,441.607,0,0,1,818.819,460.607ZM486.128,149.05a58.847,58.847,0,0,1-.628,8.654c-6.076,40.883-57.642,66.713-87.836,78.47a380.826,380.826,0,0,1-58.512,17.166c-.192.04-.367.068-.56.119-4.369.927-8.721,1.865-13.192,2.679l-2.792.5c-16.318,2.984-34.354,6.037-48.943,7.574-.712.079-1.441.158-2.131.237.724.294,1.413.6,2.131.9,42.4,17.759,71.19,42.07,101.328,67.612l18.76,15.742c31.913,26.334,75.215,59.6,127.243,83.241l10.468,4.759-11.191,2.623a383.415,383.415,0,0,1-52.018,8.546c-28.985,2.707-58.879,2.018-91.386-2.1-90.753-11.491-167.329-52.425-204.843-109.507-23.683-36.022-30.223-75.689-18.929-114.7C167.075,173.309,210,129.126,270.885,100.35,332.505,71.207,413.7,53.261,456.815,90.3,475.394,106.251,486.128,128.108,486.128,149.05Z" transform="translate(-89.457)" fill="#121629"/>
</svg>
