<svg xmlns="http://www.w3.org/2000/svg" width="1154" height="145.6" viewBox="0 0 1154 145.6">
  <g id="img_text" data-name="img+text" transform="translate(-348.4 -225)">
    <path id="Path_3" data-name="Path 3" d="M4.4,0V-2L8.6-3.4q4-1.4,5.2-3.7A14.3,14.3,0,0,0,15-13.6V-118.2a14.838,14.838,0,0,0-1.1-6.3q-1.1-2.3-4.9-3.7L4.4-130v-2H61.6q23.6,0,36.2,8.9t12.6,24.7q0,8.8-6.6,17.6T83-67.2L110.8-12a20.066,20.066,0,0,0,4.1,5.5A21.157,21.157,0,0,0,121-2.8l2.6,1V0H87.8L58.2-63H44.6v49.4a13.877,13.877,0,0,0,1.2,6.2Q47-5,50.8-3.8L55.6-2V0ZM44.6-67h9.6Q68.6-67,75-74.7t6.4-22.9q0-15.4-6-22.9T55.2-128H44.6ZM175,3q-15.2,0-26.4-6.3a43.072,43.072,0,0,1-17.3-17.9q-6.1-11.6-6.1-27.2t6.5-27A45.181,45.181,0,0,1,149.5-93,52.127,52.127,0,0,1,175-99.2a52.234,52.234,0,0,1,25.4,6.1,44.676,44.676,0,0,1,17.7,17.5q6.5,11.4,6.5,27.2t-6.1,27.3A43.394,43.394,0,0,1,201.3-3.3Q190.2,3,175,3Zm0-4q7,0,11.2-4t6.1-14.2q1.9-10.2,1.9-28.8,0-18.8-1.9-29t-6.1-14.2q-4.2-4-11.2-4t-11.3,4q-4.3,4-6.2,14.2t-1.9,29q0,18.6,1.9,28.8T163.7-5Q168-1,175-1Zm91,4A62.2,62.2,0,0,1,248.4.7,82.031,82.031,0,0,1,234-5l.2-23.8h2l6.8,12q4.4,8,9.7,11.9T266.2-1q9.6,0,15.5-4.3a13.529,13.529,0,0,0,5.9-11.5,14.619,14.619,0,0,0-4.2-10.8q-4.2-4.2-15.6-7.6l-8.4-2.6Q247.2-41.4,240.2-49a26.446,26.446,0,0,1-7-18.6q0-13.2,10.4-22.4t29.8-9.2a61.285,61.285,0,0,1,14.7,1.7,57.655,57.655,0,0,1,13.3,5.1l-1.2,21.6h-2l-7-12.4q-3.8-6.6-7.5-9.3t-11.1-2.7a23.511,23.511,0,0,0-12.8,3.8,12.075,12.075,0,0,0-6,10.8,13.005,13.005,0,0,0,5.1,10.8q5.1,4,15.1,7.4l9,2.6q14.4,4.4,20.6,12.1a28.574,28.574,0,0,1,6.2,18.5A28,28,0,0,1,298.3-5.8Q286.8,3,266,3ZM366.8-99.2q13,0,22.2,5.3a36.151,36.151,0,0,1,14.1,14.4A42.966,42.966,0,0,1,408-58.8q0,2.2-.2,4.5a17.884,17.884,0,0,1-.8,4.1H347.4q.2,21.6,7.7,31.1t22.3,9.5q10,0,16.2-3.2a39.608,39.608,0,0,0,11.6-9.4l2,1.8A46,46,0,0,1,390.7-3.2Q380.4,3,366,3a51.09,51.09,0,0,1-25.2-6.1,43.062,43.062,0,0,1-17.2-17.5q-6.2-11.4-6.2-27.2,0-16.4,7.2-27.9a48.433,48.433,0,0,1,18.5-17.5A49.858,49.858,0,0,1,366.8-99.2Zm-.6,4a14.736,14.736,0,0,0-9.9,3.5q-4.1,3.5-6.4,12.4t-2.5,25.1h34.2q2-21.8-1.6-31.4T366.2-95.2ZM416,0V-2l2.8-.8q7-2,7-9.8V-75.2q0-4.4-1.4-6.5T419-84.6l-3-.8v-2L450.2-99l2,2,1.6,12a62.956,62.956,0,0,1,15.8-10.2,41.8,41.8,0,0,1,17.4-4q13.2,0,20.3,7.2t7.1,22v57.6q0,7.8,7.6,9.8l1.8.6V0H476.6V-2l2.6-.8q7-2.2,7-9.8V-76.4q0-12.8-12.8-12.8-8.8,0-19.2,8.8v68q0,7.8,7,9.8L463-2V0ZM589,3.6q-9.8,0-15.1-3.8a11.931,11.931,0,0,1-5.3-10.2,10.2,10.2,0,0,1,3.9-8.6,14.5,14.5,0,0,1,9.1-3,18.124,18.124,0,0,1,9.2,2.3q4,2.3,7.4,7.9l3.6,6.2a2.979,2.979,0,0,0,2.5,1.4q1.5,0,2.1-1.8a55.93,55.93,0,0,0,1.7-11.7q.5-7.7.5-18.7,0-12.6-.6-32.4t-1.2-48.8q0-8.6-6.4-10.8l-4.6-1.6v-2h52.4v2l-4.4,1.6a9.127,9.127,0,0,0-4.9,3.7,13.352,13.352,0,0,0-1.3,6.5v39.6a239.835,239.835,0,0,1-1.8,32.4A88.162,88.162,0,0,1,630-24,39.837,39.837,0,0,1,613.7-3.5,45.531,45.531,0,0,1,589,3.6ZM683.6,3a33.71,33.71,0,0,1-14.3-3,22.055,22.055,0,0,1-10.2-9.7q-3.7-6.7-3.5-17.7l.6-51.4q0-4.6-1.6-6.6a8.7,8.7,0,0,0-5-2.8l-2.4-.8v-2L683-98l2,2-1,28.4v48.2q0,6.4,3.7,9.4A14.289,14.289,0,0,0,697-7a29.141,29.141,0,0,0,10-1.6,35.891,35.891,0,0,0,8.8-4.8l.8-65.2q0-4.6-1.4-6.5T710-87.8l-2-.6v-2L743-98l2,2-.6,28.4v54.2a15.533,15.533,0,0,0,1.2,6.8q1.2,2.4,5.2,4l2,.6V0l-35,2L716-9.8A71.2,71.2,0,0,1,701.7-.7,41.379,41.379,0,0,1,683.6,3Zm111,0A62.2,62.2,0,0,1,777,.7,82.032,82.032,0,0,1,762.6-5l.2-23.8h2l6.8,12q4.4,8,9.7,11.9T794.8-1q9.6,0,15.5-4.3a13.529,13.529,0,0,0,5.9-11.5A14.619,14.619,0,0,0,812-27.6q-4.2-4.2-15.6-7.6L788-37.8Q775.8-41.4,768.8-49a26.446,26.446,0,0,1-7-18.6q0-13.2,10.4-22.4T802-99.2a61.286,61.286,0,0,1,14.7,1.7A57.655,57.655,0,0,1,830-92.4l-1.2,21.6h-2l-7-12.4q-3.8-6.6-7.5-9.3t-11.1-2.7a23.511,23.511,0,0,0-12.8,3.8,12.075,12.075,0,0,0-6,10.8,13.006,13.006,0,0,0,5.1,10.8q5.1,4,15.1,7.4l9,2.6q14.4,4.4,20.6,12.1a28.574,28.574,0,0,1,6.2,18.5A28,28,0,0,1,826.9-5.8Q815.4,3,794.6,3Zm88.6,0q-12.8,0-19.9-6.4t-7.1-20.4V-92.2H842.4v-2l4.8-.8a38.064,38.064,0,0,0,10.7-4,43.505,43.505,0,0,0,8.9-7l16.4-18.2h2l-.6,28H907v4H884.4v72q0,7,3.1,10.6A9.964,9.964,0,0,0,895.4-6a13.18,13.18,0,0,0,7.4-2.1,32.816,32.816,0,0,0,6.4-5.7l2,2A29.494,29.494,0,0,1,900.2-1Q893.2,3,883.2,3Zm56.2-112.6a16.414,16.414,0,0,1-11.5-4.3,14.131,14.131,0,0,1-4.7-10.9,14.051,14.051,0,0,1,4.7-11,16.64,16.64,0,0,1,11.5-4.2,16.275,16.275,0,0,1,11.4,4.2,14.194,14.194,0,0,1,4.6,11,14.275,14.275,0,0,1-4.6,10.9A16.058,16.058,0,0,1,939.4-109.6ZM915.8,0V-2l2.8-.8q4-1.2,5.5-3.6a11.966,11.966,0,0,0,1.5-6.4V-75.4q0-4.2-1.5-6.3t-5.5-2.9l-2.8-.6v-2L952.4-99l2,2-.6,28.4v56a11.966,11.966,0,0,0,1.5,6.4,9.191,9.191,0,0,0,5.3,3.6l2,.6V0ZM1019,3a51.794,51.794,0,0,1-24.7-5.9,43.666,43.666,0,0,1-17.6-17.2q-6.5-11.3-6.5-27.7,0-16.2,7.1-27.7a47.332,47.332,0,0,1,19-17.6,56.371,56.371,0,0,1,26.1-6.1q11.6,0,19.6,3.8a29.981,29.981,0,0,1,12.2,9.9,22.085,22.085,0,0,1,4.2,12.7q0,5.6-3.4,8.7a12.554,12.554,0,0,1-8.8,3.1,11.79,11.79,0,0,1-9.4-4.2,18.991,18.991,0,0,1-4.2-11,44.1,44.1,0,0,1,.2-7.5,24.9,24.9,0,0,0,0-6.3q-.8-3.4-2.5-4.5a8.6,8.6,0,0,0-4.7-1.1q-12.2,0-18.9,10.6T1000-51.2q0,20.2,7.5,30.9t23.1,10.7q9.4,0,15.2-3.4A41.4,41.4,0,0,0,1057-23.2l2,1.6a38.289,38.289,0,0,1-15.4,18.2Q1033.2,3,1019,3Zm96.2-102.2q13,0,22.2,5.3a36.152,36.152,0,0,1,14.1,14.4,42.965,42.965,0,0,1,4.9,20.7q0,2.2-.2,4.5a17.881,17.881,0,0,1-.8,4.1h-59.6q.2,21.6,7.7,31.1t22.3,9.5q10,0,16.2-3.2a39.608,39.608,0,0,0,11.6-9.4l2,1.8a46,46,0,0,1-16.5,17.2Q1128.8,3,1114.4,3a51.091,51.091,0,0,1-25.2-6.1A43.061,43.061,0,0,1,1072-20.6q-6.2-11.4-6.2-27.2,0-16.4,7.2-27.9a48.432,48.432,0,0,1,18.5-17.5A49.858,49.858,0,0,1,1115.2-99.2Zm-.6,4a14.736,14.736,0,0,0-9.9,3.5q-4.1,3.5-6.4,12.4t-2.5,25.1H1130q2-21.8-1.6-31.4T1114.6-95.2Z" transform="translate(345 366)" fill="none" stroke="#c9ac2b" stroke-width="2" opacity="0.54"/>
  </g>
</svg>
